HIERARCHY
ROOT Hips
{
  OFFSET 267.745 86.9975 -272.335
  CHANNELS 6 Xposition Yposition Zposition Zrotation Xrotation Yrotation
  JOINT LeftUpLeg
  {
    OFFSET 8.64259 1.95398 -2.38835
    CHANNELS 3 Zrotation Xrotation Yrotation
    JOINT LeftLeg
    {
      OFFSET 43.7702 0 0
      CHANNELS 3 Zrotation Xrotation Yrotation
      JOINT LeftFoot
      {
        OFFSET 40.6238 0 0
        CHANNELS 3 Zrotation Xrotation Yrotation
        JOINT LeftToeBase
        {
          OFFSET 12.7242 0 0
          CHANNELS 3 Zrotation Xrotation Yrotation
          End Site
          {
            OFFSET 0 0 0
          }
        }
      }
    }
  }
  JOINT RightUpLeg
  {
    OFFSET -8.2249 1.95398 -2.59336
    CHANNELS 3 Zrotation Xrotation Yrotation
    JOINT RightLeg
    {
      OFFSET 43.5653 0 0
      CHANNELS 3 Zrotation Xrotation Yrotation
      JOINT RightFoot
      {
        OFFSET 40.6238 0 0
        CHANNELS 3 Zrotation Xrotation Yrotation
        JOINT RightToeBase
        {
          OFFSET 12.7242 0 0
          CHANNELS 3 Zrotation Xrotation Yrotation
          End Site
          {
            OFFSET 0 0 0
          }
        }
      }
    }
  }
  JOINT Spine
  {
    OFFSET 0.165834 0.87714 6.61349
    CHANNELS 3 Zrotation Xrotation Yrotation
    JOINT Spine1
    {
      OFFSET 7.38963 1.71661e-005 0
      CHANNELS 3 Zrotation Xrotation Yrotation
      JOINT Spine2
      {
        OFFSET 11.9445 1.14441e-005 0
        CHANNELS 3 Zrotation Xrotation Yrotation
        JOINT Spine3
        {
          OFFSET 14.7254 4.19617e-005 0
          CHANNELS 3 Zrotation Xrotation Yrotation
          JOINT Spine4
          {
            OFFSET 10.9679 0 0
            CHANNELS 3 Zrotation Xrotation Yrotation
            JOINT RightShoulder
            {
              OFFSET 2.46616 -1.6653 3.69651
              CHANNELS 3 Zrotation Xrotation Yrotation
              JOINT RightArm
              {
                OFFSET 13.0012 0 0
                CHANNELS 3 Zrotation Xrotation Yrotation
                JOINT RightForeArm
                {
                  OFFSET 28.7848 1.52588e-005 0
                  CHANNELS 3 Zrotation Xrotation Yrotation
                  JOINT RightHand
                  {
                    OFFSET 26.5688 1.52588e-005 0
                    CHANNELS 3 Zrotation Xrotation Yrotation
                    End Site
                    {
                      OFFSET 0 0 0
                    }
                  }
                }
              }
            }
            JOINT LeftShoulder
            {
              OFFSET 2.38034 -1.29275 -3.7523
              CHANNELS 3 Zrotation Xrotation Yrotation
              JOINT LeftArm
              {
                OFFSET 16.3182 6.10352e-005 0
                CHANNELS 3 Zrotation Xrotation Yrotation
                JOINT LeftForeArm
                {
                  OFFSET 27.0901 0 0
                  CHANNELS 3 Zrotation Xrotation Yrotation
                  JOINT LeftHand
                  {
                    OFFSET 24.5451 1.52588e-005 0
                    CHANNELS 3 Zrotation Xrotation Yrotation
                    End Site
                    {
                      OFFSET 0 0 0
                    }
                  }
                }
              }
            }
            JOINT Neck
            {
              OFFSET 5.0226 -0.0266342 0
              CHANNELS 3 Zrotation Xrotation Yrotation
              JOINT Head
              {
                OFFSET 6.69364 2.86102e-005 0
                CHANNELS 3 Zrotation Xrotation Yrotation
                End Site
                {
                  OFFSET 0 0 0
                }
              }
            }
          }
        }
      }
    }
  }
}
MOTION
Frames:	9
Frame Time:	0.0416667
-236.739 91.325 239.763 96.3103 42.1597 100.723 -166.115 17.9307 106.677 -36.5279 28.4232 -1.35552 69.579 8.63736 15.0647 37.6503 -0.922758 -1.81422 -179.54 15.7337 105.993 -54.5679 -5.47974 -0.28696 44.6725 10.1606 21.5919 28.7266 -0.649943 7.41665 0.894212 7.32146 -91.561 12.2356 1.03783 -3.23185 0.560979 0.89466 -3.27434 -21.9523 1.9608 -2.7711 -1.93967 1.9608 -2.77111 101.822 -53.1637 -82.6848 31.8875 -28.9526 7.77931 0.603584 11.127 -80.41 -3.02712 -0.11044 -1.14589 -83.2062 -49.2305 88.646 -27.9961 20.8256 -2.3766 -11.5478 -9.03518 -62.7508 -5.82812 0.210731 -14.3312 5.45179 0.614496 -6.57153 -20.7135 -0.00547217 12.5325 
-231.023 92.1321 234.02 97.6958 39.0237 98.63 -161.563 7.82506 107.35 -28.3943 27.9299 -3.72512 69.9761 9.48589 16.4831 40.3162 -1.25438 -2.2196 -177.715 20.5993 105.368 -40.4918 -3.88564 -0.162577 48.9842 7.85155 17.2771 37.009 -2.13822 7.31816 1.06712 7.35925 -91.4585 12.1664 1.43117 -3.06906 0.492479 1.29476 -3.129 -22.0282 2.28712 -2.49755 -2.01553 2.2871 -2.49756 103.573 -53.1715 -80.0565 31.5357 -29.8561 7.49377 0.000945321 11.3963 -80.8364 -2.6505 -0.106634 -0.706444 -82.9566 -48.6657 88.9746 -26.6901 23.2127 -5.0176 -13.3818 -9.9903 -61.4727 -4.06714 0.0617295 -14.3614 5.38423 1.05255 -7.60552 -22.2201 0.461594 12.4519 
-225.454 91.9451 228.542 100.87 37.4558 94.8347 -158.926 -2.75884 107.519 -23.2363 24.7535 -4.34973 70.7587 9.9653 14.9252 43.8021 -1.67749 0.5969 -173.808 17.7489 103.407 -13.8979 -0.183657 -2.56238 48.5772 9.73933 21.7916 33.9841 -1.26784 0.207815 1.22985 7.57713 -91.3042 11.7363 1.83376 -2.79206 0.0634913 1.70915 -2.87 -22.4668 2.58793 -2.11216 -2.45415 2.58795 -2.11217 104.699 -53.251 -78.3717 32.7818 -27.6087 8.18519 -1.91713 10.7942 -80.7043 -0.376558 -0.0189539 -1.69897 -82.8912 -48.5574 89.0651 -25.7571 24.5959 -6.67608 -12.8152 -9.70415 -60.8252 -3.10742 -0.0386552 -12.7158 5.47655 0.921694 -8.23787 -23.2841 0.406718 12.0709 
-219.634 91.0933 222.974 105.384 37.2117 90.2929 -157.366 -11.8322 108.077 -23.3246 25.486 -3.44654 69.626 9.74852 14.2391 49.1844 -1.9042 5.67857 -173.511 15.8367 102.002 -6.19094 8.78092 -4.71661 53.5129 11.6447 33.6434 34.1804 -1.17628 -3.97929 1.27468 7.91545 -91.2271 11.0603 1.96845 -2.63109 -0.612007 1.85077 -2.71512 -23.1464 2.66802 -1.91804 -3.13373 2.66803 -1.91804 105.51 -53.4675 -77.1686 34.3199 -25.7349 9.05574 0.159648 10.3514 -81.7821 -2.49939 -0.100209 -0.955151 -82.731 -49.2836 89.3783 -25.1922 24.7516 -7.10923 -13.2078 -9.77752 -60.0052 -3.63448 0.0168188 -14.0033 6.09909 0.507358 -8.55608 -24.1674 -0.0601816 12.4322 
-213.228 90.1487 216.809 106.938 37.822 88.2953 -160.386 -15.6702 106.268 -31.2249 24.5493 0.986943 65.3656 5.15491 8.39715 58.8757 -2.35428 6.81391 -174.561 13.2404 101.111 -8.58834 -3.15829 -1.71435 42.5804 11.1229 17.6454 36.0173 -1.71127 -3.47076 1.09709 7.96481 -91.3355 10.9567 1.56606 -2.80551 -0.716521 1.44114 -2.87167 -23.2428 2.33664 -2.20552 -3.23017 2.33666 -2.20551 104.937 -53.4953 -78.0261 34.7499 -24.6359 9.60148 0.586793 9.99457 -81.6677 -4.02518 -0.18683 0.264509 -82.5395 -51.0935 89.8247 -27.0397 22.1942 -4.04366 -13.7919 -10.0227 -59.406 -4.79483 0.106021 -13.6461 6.55077 1.17785 -7.14396 -24.5612 0.28702 12.571 
-207.044 89.8292 210.771 104.347 39.6116 89.9419 -165.839 -6.72847 104.658 -48.0413 16.0906 3.43018 51.0665 -5.19635 -1.91847 61.395 -4.31471 -3.73068 -177.213 19.6448 101.466 -27.4647 -7.60197 -0.766342 50.3606 9.1847 11.0423 27.0246 0.424678 0.257667 0.941036 7.63471 -91.5504 11.6107 1.1457 -3.209 -0.0637871 1.00342 -3.25624 -22.5787 2.05684 -2.71689 -2.56606 2.05684 -2.71689 104.341 -52.9873 -78.8966 34.3091 -24.7553 10.3418 0.206823 10.1276 -81.1148 -3.00733 -0.119732 -0.656226 -82.5933 -50.7 89.7106 -31.1122 20.5616 0.024138 -13.1829 -9.73129 -59.5806 -4.8662 0.139805 -14.9221 6.78563 1.14377 -7.53237 -24.0086 0.192453 13.7778 
-201.067 90.3068 205.361 101.247 42.3455 91.6218 -170.769 8.20567 102.304 -64.5747 11.2793 3.74196 51.2085 -2.69496 7.46909 55.5245 -2.72024 2.14199 -179.612 19.4753 101.131 -34.1816 -5.23974 0.0894322 58.8293 6.19145 11.1397 26.5099 0.395858 1.81764 0.997178 7.45945 -91.6004 11.9619 1.22843 -3.32488 0.287172 1.08099 -3.37565 -22.2267 2.17052 -2.80262 -2.21401 2.17051 -2.80263 104.078 -52.3216 -79.2687 33.0484 -24.4571 9.39445 0.203441 10.1314 -81.8713 -2.10544 -0.0897308 -0.283363 -82.9283 -50.0904 89.1511 -30.4214 22.3547 -3.14992 -13.106 -9.62925 -58.7375 -4.91106 0.130369 -14.3248 7.54921 -0.224693 -8.34504 -21.6421 -0.428324 12.3516 
-195.269 91.6809 199.6 96.133 43.2054 92.7599 -171.905 21.3448 96.8149 -61.6577 8.62249 2.16751 56.2829 2.19872 10.8593 53.931 -2.27545 5.09341 179.011 17.0811 98.3316 -33.9461 -5.41535 0.242506 63.5884 4.80424 12.2008 26.4977 0.218901 3.10665 1.1327 7.13004 -91.2669 12.6292 1.64539 -2.72648 0.956254 1.52384 -2.7962 -21.5723 2.38858 -2.10624 -1.55963 2.38859 -2.10624 103.407 -52.134 -80.2819 32.1385 -25.3575 8.23263 1.17447 10.3534 -81.5649 -2.56139 -0.0983998 -0.791683 -82.7752 -49.8489 89.3617 -28.4664 23.285 -5.88917 -11.9575 -9.06962 -58.9859 -5.01628 0.152465 -14.8451 6.81083 -0.908839 -7.75665 -20.7853 -0.837457 10.1035 
-189.64 92.7765 193.519 93.2924 43.6658 92.8288 -173.129 25.342 92.6503 -40.5244 7.55307 0.459061 56.2435 1.78519 9.69194 55.4568 -2.18854 6.70339 177.38 11.0435 95.2284 -30.2424 -3.32999 0.5431 69.1873 4.18425 18.3373 22.5844 1.54671 0.022347 1.07715 7.00176 -91.0219 12.8833 1.64908 -2.2419 1.21137 1.54884 -2.31226 -21.3228 2.24654 -1.64275 -1.31017 2.24652 -1.64276 102.76 -51.6426 -81.2596 31.4633 -27.3371 6.4 1.76923 10.7844 -81.9515 -3.48531 -0.135349 -0.782183 -82.3209 -51.1294 90.1552 -27.1811 21.2637 -6.13632 -12.6574 -9.28056 -60.9278 -6.25878 0.242764 -14.1694 6.39185 -0.446506 -6.4276 -20.1906 -0.580335 9.82307 
